<svg width="176" height="31" xmlns="http://www.w3.org/2000/svg" xmlns:xlink="http://www.w3.org/1999/xlink"><defs><path id="a" d="M0 .03h26.279v30.181H0z"/><path id="c" d="M.023.03h4.675v6.763H.023z"/></defs><g fill="none" fill-rule="evenodd"><mask id="b" fill="#fff"><use xlink:href="#a"/></mask><path d="M.234 5.25l17.076 9.878L.296 24.964c-.34.219-.293.566-.293.566l.03 4.393s.084.464.503.215l25.543-14.72s.2-.107.2-.291-.2-.288-.2-.288L.552.111C-.121-.227.033.606.033.606l-.03 4.057s-.049.452.231.587" fill="#FFD200" mask="url(#b)"/><path d="M43.052 16.715c.297-.34.445-.84.445-1.501 0-.66-.148-1.16-.445-1.5-.296-.337-.733-.505-1.311-.505h-.8v4.015h.8c.581 0 1.019-.17 1.311-.51m1.528-3.303c.249.511.373 1.112.373 1.803 0 .69-.124 1.29-.373 1.797-.244.5-.598.88-1.06 1.137-.464.261-1.02.392-1.668.392H39.74a.18.18 0 0 1-.133-.056.184.184 0 0 1-.056-.134v-6.266c0-.052.019-.097.056-.134a.181.181 0 0 1 .133-.056h2.112c.645 0 1.2.128 1.667.386.467.261.82.638 1.061 1.13m5.608-.215v1.273h2.198c.052 0 .097.019.134.056a.184.184 0 0 1 .056.135v.92a.184.184 0 0 1-.056.134.183.183 0 0 1-.134.056h-2.198v1.47H53.3a.18.18 0 0 1 .134.056.184.184 0 0 1 .056.134v.92a.184.184 0 0 1-.056.135.184.184 0 0 1-.134.056h-4.324a.182.182 0 0 1-.134-.056.184.184 0 0 1-.056-.135v-6.265a.18.18 0 0 1 .056-.134.183.183 0 0 1 .134-.056H53.3a.18.18 0 0 1 .134.056.184.184 0 0 1 .056.134v.92a.184.184 0 0 1-.056.135.183.183 0 0 1-.134.056h-3.112zm9.947 5.599l-3.483-6.662c-.027-.049-.032-.087-.017-.115a.187.187 0 0 1 .068-.07.377.377 0 0 1 .12-.04l1.117-.01a.288.288 0 0 1 .08 0 .47.47 0 0 1 .071.03c.025.013.049.04.072.082l2.115 4.26 2.126-4.25a.188.188 0 0 1 .071-.086.229.229 0 0 1 .077-.031.194.194 0 0 1 .08.006h1.163c.038.015.07.033.097.056a.152.152 0 0 1 .048.078c.01.034.003.073-.02.118l-3.506 6.634a.18.18 0 0 1-.034.045.28.28 0 0 1-.043.034.107.107 0 0 1-.06.017v-.017.017a.117.117 0 0 1-.065-.017.279.279 0 0 1-.043-.034.176.176 0 0 1-.034-.045m17.907-.831c.02.053.02.1.003.14-.017.04-.058.076-.122.11a4.79 4.79 0 0 1-.663.251 5.985 5.985 0 0 1-.73.174 5.142 5.142 0 0 1-.92.077c-.628 0-1.178-.143-1.65-.427a2.9 2.9 0 0 1-1.096-1.22c-.255-.524-.382-1.145-.382-1.863 0-.717.127-1.339.382-1.863a2.907 2.907 0 0 1 1.097-1.213c.24-.144.494-.249.765-.314.27-.064.563-.096.879-.096.396 0 .779.041 1.15.125.371.084.76.207 1.168.37a.194.194 0 0 1 .114.097.182.182 0 0 1 .005.148l-.308.883a.194.194 0 0 1-.097.114.182.182 0 0 1-.148.006 16.67 16.67 0 0 0-.434-.148 13.08 13.08 0 0 0-.52-.165 3.9 3.9 0 0 0-.873-.097c-.537 0-.952.184-1.245.552-.293.365-.44.899-.44 1.601 0 .707.147 1.242.44 1.607.297.368.712.553 1.245.553.156 0 .306-.008.45-.023a3.059 3.059 0 0 0 .663-.143l.32-.102c.125-.042.255-.088.388-.137a.19.19 0 0 1 .251.12l.308.883zm9.018-6.013a.182.182 0 0 1 .058.134v6.265c0 .053-.02.098-.057.135a.188.188 0 0 1-.137.056h-1.037a.188.188 0 0 1-.137-.056.181.181 0 0 1-.057-.135v-2.598h-2.552v2.598c0 .053-.02.098-.057.135a.188.188 0 0 1-.137.056H81.91a.188.188 0 0 1-.137-.056.181.181 0 0 1-.057-.135v-6.265c0-.052.02-.097.057-.134a.188.188 0 0 1 .137-.056h1.037c.053 0 .099.018.137.056a.182.182 0 0 1 .057.134v2.408h2.552v-2.408c0-.052.02-.097.057-.134a.188.188 0 0 1 .137-.056h1.037c.053 0 .099.018.137.056m7.211 3.989l-.89-1.78-.883 1.78h1.773zm2.753 2.33c.023.048.03.09.02.123a.151.151 0 0 1-.048.079.343.343 0 0 1-.097.056h-1.163a.19.19 0 0 1-.08.005.229.229 0 0 1-.077-.03.187.187 0 0 1-.071-.087l-.576-1.146h-3.09l-.576 1.157a.22.22 0 0 1-.07.084.2.2 0 0 1-.072.028.192.192 0 0 1-.08-.006l-1.117-.005a.373.373 0 0 1-.12-.04.186.186 0 0 1-.068-.07c-.016-.028-.01-.066.017-.115l3.483-6.663a.176.176 0 0 1 .034-.045.172.172 0 0 1 .108-.05v.017-.017c.038.003.072.02.103.05a.18.18 0 0 1 .034.045l3.506 6.63zm7.808-1.011a.189.189 0 0 1 .057.14v.951a.182.182 0 0 1-.057.135.187.187 0 0 1-.136.056h-4.493a.187.187 0 0 1-.136-.056.182.182 0 0 1-.057-.135v-6.265a.18.18 0 0 1 .057-.134.187.187 0 0 1 .136-.056h1.034c.053 0 .098.018.136.056a.182.182 0 0 1 .057.134v5.118h3.266c.053 0 .098.018.136.056m9.06 0a.189.189 0 0 1 .057.14v.951a.182.182 0 0 1-.057.135.187.187 0 0 1-.136.056h-4.493a.187.187 0 0 1-.136-.056.182.182 0 0 1-.057-.135v-6.265c0-.052.02-.097.057-.134a.187.187 0 0 1 .136-.056h1.034c.053 0 .099.018.136.056a.182.182 0 0 1 .057.134v5.118h3.266c.053 0 .098.018.136.056m5.467-4.063v1.273h2.197c.052 0 .097.019.135.056a.184.184 0 0 1 .056.135v.92a.184.184 0 0 1-.056.134.183.183 0 0 1-.135.056h-2.198v1.47h3.112c.052 0 .097.018.135.056a.184.184 0 0 1 .056.134v.92a.184.184 0 0 1-.056.135.184.184 0 0 1-.135.056h-4.324a.182.182 0 0 1-.134-.056.184.184 0 0 1-.056-.135v-6.265c0-.052.019-.097.056-.134a.183.183 0 0 1 .134-.056h4.324c.052 0 .097.018.135.056a.184.184 0 0 1 .056.134v.92a.183.183 0 0 1-.056.135.183.183 0 0 1-.135.056h-3.112zm13.176-1.227a.188.188 0 0 1 .057.137v6.335a.406.406 0 0 1-.023.152.259.259 0 0 1-.05.083.154.154 0 0 1-.069.04h-.256a.257.257 0 0 1-.11-.029.457.457 0 0 1-.106-.068.55.55 0 0 1-.113-.098l-3.952-3.834v3.823c0 .053-.019.1-.056.137a.185.185 0 0 1-.137.057h-1.033a.185.185 0 0 1-.136-.057.188.188 0 0 1-.057-.137v-6.335c0-.065.01-.115.028-.149a.28.28 0 0 1 .063-.08.343.343 0 0 1 .09-.046h.074c.023 0 .05 0 .083-.003l.1-.002c.033 0 .07.01.107.031a.829.829 0 0 1 .108.072c.038.03.076.062.113.097l3.913 3.805v-3.794c0-.053.019-.099.057-.137a.187.187 0 0 1 .136-.057h1.032c.054 0 .1.019.137.057m8.764 5.809c0 .095-.01.17-.026.227-.017.057-.077.112-.18.165a4 4 0 0 1-1.113.404 5.888 5.888 0 0 1-1.318.142c-.621 0-1.167-.142-1.636-.426a2.853 2.853 0 0 1-1.085-1.217c-.258-.519-.387-1.138-.387-1.858 0-.356.031-.69.094-1 .062-.311.16-.597.293-.859a2.848 2.848 0 0 1 1.085-1.216c.473-.28 1.019-.42 1.636-.42.2 0 .398.011.59.034.194.022.387.055.58.096a8.714 8.714 0 0 1 .767.22c.118.039.221.077.31.113.089.036.154.065.196.088.038.026.064.06.08.1a.17.17 0 0 1 0 .122l-.307.88a.193.193 0 0 1-.097.114.181.181 0 0 1-.148.006 11.84 11.84 0 0 0-.647-.21 8.74 8.74 0 0 0-.622-.148 3.264 3.264 0 0 0-.645-.068c-.534 0-.95.183-1.244.55-.292.368-.438.9-.438 1.598 0 .697.148 1.23.443 1.597.292.371.705.557 1.239.557a3.839 3.839 0 0 0 1.159-.176v-1.109h-1.38a.195.195 0 0 1-.14-.056.182.182 0 0 1-.06-.137v-.892a.18.18 0 0 1 .06-.136.196.196 0 0 1 .14-.057h2.613c.053 0 .098.019.136.057a.186.186 0 0 1 .057.136l-.006 2.78z" fill="#333"/><g transform="translate(145.138 11.894)"><mask id="d" fill="#fff"><use xlink:href="#c"/></mask><path d="M1.416 1.355V2.65h2.185a.18.18 0 0 1 .133.057.19.19 0 0 1 .056.137v.936a.189.189 0 0 1-.056.137.18.18 0 0 1-.133.057H1.416v1.495H4.51a.18.18 0 0 1 .134.057.19.19 0 0 1 .055.137v.936a.19.19 0 0 1-.055.137.18.18 0 0 1-.134.057H.212a.18.18 0 0 1-.133-.057.19.19 0 0 1-.056-.137V.225A.19.19 0 0 1 .08.088.18.18 0 0 1 .212.03H4.51a.18.18 0 0 1 .134.057.19.19 0 0 1 .055.137v.936a.189.189 0 0 1-.055.136.18.18 0 0 1-.134.058H1.416z" fill="#333" mask="url(#d)"/></g><path d="M166.17 17.454a.18.18 0 0 1 .05.127v.953a.18.18 0 0 1-.05.127.167.167 0 0 1-.127.054h-4.146a.167.167 0 0 1-.128-.054.18.18 0 0 1-.05-.127v-.953a.18.18 0 0 1 .05-.127.167.167 0 0 1 .128-.053h1.406v-3.57l-1.262.739a.16.16 0 0 1-.136.017.195.195 0 0 1-.108-.085l-.434-.756a.189.189 0 0 1-.014-.138.185.185 0 0 1 .08-.11l2.158-1.263.793-.457a.398.398 0 0 1 .162-.06c.04-.001.072.01.094.032a.172.172 0 0 1 .045.09.606.606 0 0 1 .011.119V17.4h1.35c.053 0 .095.018.129.053m9.755-.001a.175.175 0 0 1 .052.13v.952a.175.175 0 0 1-.183.18h-5.252a.139.139 0 0 1-.126-.085.18.18 0 0 1-.014-.084.177.177 0 0 1 .043-.096l3.077-3.04.304-.311c.087-.091.16-.168.217-.233.118-.14.21-.271.275-.396a.928.928 0 0 0 .097-.402c0-.264-.078-.47-.235-.617-.164-.143-.39-.215-.68-.215-.214 0-.443.027-.687.08a.132.132 0 0 1-.034.022 2.88 2.88 0 0 0-.263.09c-.107.042-.21.084-.31.125a7.01 7.01 0 0 0-.36.164.195.195 0 0 1-.149.009.163.163 0 0 1-.103-.094l-.4-.82c-.05-.102-.021-.185.086-.25a13.76 13.76 0 0 1 .655-.3 9.227 9.227 0 0 1 .55-.209 2.804 2.804 0 0 1 .603-.136c.13-.015.284-.022.463-.022.492 0 .913.086 1.264.26.347.177.609.423.784.736.176.313.263.687.263 1.12 0 .382-.097.742-.291 1.082-.195.34-.481.69-.859 1.053l-1.293 1.257h2.375a.18.18 0 0 1 .131.05" fill="#333"/><path fill="#333" fill-rule="nonzero" d="M153.501 17.49h4.53v1.224h-4.53zm-87.988 0h4.53v1.224h-4.53z"/></g></svg>