<svg width="161" height="63" xmlns="http://www.w3.org/2000/svg" xmlns:xlink="http://www.w3.org/1999/xlink"><defs><path id="a" d="M0 .042h36.243v41.334H0z"/><path id="c" d="M.032.042H6.48v9.261H.032z"/></defs><g fill="none" fill-rule="evenodd"><mask id="b" fill="#fff"><use xlink:href="#a"/></mask><path d="M.323 7.19l23.55 13.529L.409 34.19c-.468.3-.404.775-.404.775l.042 6.017s.116.635.693.294l35.229-20.16s.275-.147.275-.399-.275-.394-.275-.394L.76.152C-.167-.311.046.83.046.83L.004 6.387s-.067.618.319.804" fill="#FFD200" mask="url(#b)"/><path d="M59.376 22.892c.409-.466.613-1.15.613-2.056 0-.904-.204-1.59-.613-2.055-.409-.46-1.012-.69-1.809-.69h-1.103v5.499h1.103c.802 0 1.405-.233 1.809-.698m2.108-4.525c.342.7.513 1.524.513 2.47 0 .945-.171 1.766-.513 2.461a3.486 3.486 0 0 1-1.464 1.557c-.639.358-1.405.537-2.3.537h-2.912a.25.25 0 0 1-.184-.077.25.25 0 0 1-.076-.184V16.55a.25.25 0 0 1 .076-.184.25.25 0 0 1 .184-.077h2.913c.889 0 1.655.176 2.299.53a3.492 3.492 0 0 1 1.464 1.548m7.733-.296v1.744h3.031c.072 0 .134.026.186.077a.251.251 0 0 1 .077.184v1.26a.25.25 0 0 1-.077.184.254.254 0 0 1-.186.077h-3.031v2.013h4.292c.072 0 .134.025.185.076a.25.25 0 0 1 .078.185v1.26a.25.25 0 0 1-.078.184.254.254 0 0 1-.185.077h-5.964a.252.252 0 0 1-.184-.077.25.25 0 0 1-.077-.185v-8.58c0-.071.025-.133.077-.184a.253.253 0 0 1 .184-.077h5.964c.072 0 .134.026.185.077a.251.251 0 0 1 .078.184v1.26a.25.25 0 0 1-.078.184.254.254 0 0 1-.185.077h-4.292zm13.719 7.669l-4.804-9.124c-.037-.067-.045-.12-.024-.158a.256.256 0 0 1 .095-.096.523.523 0 0 1 .165-.054l1.54-.015a.4.4 0 0 1 .111 0 .65.65 0 0 1 .098.042.27.27 0 0 1 .099.112l2.916 5.834 2.933-5.82a.258.258 0 0 1 .098-.118.317.317 0 0 1 .106-.043.27.27 0 0 1 .11.008h1.604c.053.02.097.046.134.077a.208.208 0 0 1 .067.108c.013.046.004.1-.028.161l-4.835 9.086a.248.248 0 0 1-.047.062.387.387 0 0 1-.06.046.148.148 0 0 1-.082.023v-.023.023a.163.163 0 0 1-.09-.023.384.384 0 0 1-.059-.046.241.241 0 0 1-.047-.062m-20.96 17.546a.255.255 0 0 1 .004.19c-.023.055-.08.106-.169.153-.278.13-.583.245-.913.343-.284.089-.62.168-1.008.238a7.14 7.14 0 0 1-1.268.106c-.866 0-1.624-.195-2.275-.586-.646-.39-1.15-.946-1.512-1.67-.352-.717-.528-1.568-.528-2.55 0-.984.176-1.835.528-2.552.362-.718.866-1.272 1.512-1.662.33-.198.682-.341 1.055-.43a5.244 5.244 0 0 1 1.212-.132 7.25 7.25 0 0 1 1.587.172c.512.114 1.048.283 1.61.507.073.026.126.07.157.132.032.063.034.13.008.203l-.425 1.21a.266.266 0 0 1-.134.156.253.253 0 0 1-.204.008 21.62 21.62 0 0 0-.599-.203 18.13 18.13 0 0 0-.716-.227 5.414 5.414 0 0 0-1.205-.132c-.74 0-1.312.252-1.716.757-.405.499-.607 1.23-.607 2.192 0 .968.202 1.701.607 2.2.409.505.981.757 1.716.757.215 0 .423-.01.622-.03a4.245 4.245 0 0 0 .913-.196l.441-.14c.173-.058.352-.12.536-.188a.264.264 0 0 1 .346.164l.425 1.21zm12.438-8.236a.248.248 0 0 1 .079.184v8.581a.248.248 0 0 1-.079.184.26.26 0 0 1-.189.077h-1.43a.26.26 0 0 1-.188-.077.247.247 0 0 1-.079-.184v-3.558h-3.52v3.558a.248.248 0 0 1-.079.184.26.26 0 0 1-.188.077h-1.43a.26.26 0 0 1-.19-.077.247.247 0 0 1-.078-.184v-8.58c0-.072.026-.134.079-.185a.26.26 0 0 1 .188-.077h1.43a.26.26 0 0 1 .19.077.248.248 0 0 1 .078.184v3.298h3.52v-3.298c0-.071.026-.133.079-.184a.26.26 0 0 1 .188-.077h1.43a.26.26 0 0 1 .189.077m9.945 5.464l-1.227-2.437-1.218 2.437h2.445zm3.797 3.19c.032.067.04.123.028.17a.207.207 0 0 1-.067.107.474.474 0 0 1-.134.077H86.38a.265.265 0 0 1-.11.008.316.316 0 0 1-.106-.043.257.257 0 0 1-.098-.119l-.794-1.568H81.01l-.794 1.584a.302.302 0 0 1-.099.115.278.278 0 0 1-.098.038.267.267 0 0 1-.11-.007l-1.541-.008a.517.517 0 0 1-.165-.054.255.255 0 0 1-.095-.096c-.02-.038-.013-.09.024-.157l4.804-9.126c.01-.02.026-.04.047-.061a.238.238 0 0 1 .15-.07v.023-.023a.227.227 0 0 1 .14.07.2.2 0 0 1 .048.061l4.835 9.08zm10.769-1.384a.258.258 0 0 1 .078.192v1.303a.248.248 0 0 1-.078.184.259.259 0 0 1-.188.077H92.54a.259.259 0 0 1-.188-.077.248.248 0 0 1-.078-.184v-8.58a.25.25 0 0 1 .078-.185.26.26 0 0 1 .188-.077h1.426a.26.26 0 0 1 .188.077.249.249 0 0 1 .078.184v7.01h4.504a.26.26 0 0 1 .188.076m12.496 0a.258.258 0 0 1 .079.192v1.303a.248.248 0 0 1-.079.184.259.259 0 0 1-.188.077h-6.196a.259.259 0 0 1-.188-.077.248.248 0 0 1-.078-.184v-8.58a.25.25 0 0 1 .078-.185.26.26 0 0 1 .188-.077h1.426a.26.26 0 0 1 .188.077.249.249 0 0 1 .078.184v7.01h4.504a.26.26 0 0 1 .188.076m7.539-5.564v1.743h3.031c.072 0 .134.026.186.077a.251.251 0 0 1 .077.184v1.26a.25.25 0 0 1-.077.185.254.254 0 0 1-.186.076h-3.031v2.013h4.292c.072 0 .134.026.185.077a.25.25 0 0 1 .077.184v1.26a.25.25 0 0 1-.077.184.254.254 0 0 1-.185.077h-5.964a.252.252 0 0 1-.185-.077.25.25 0 0 1-.077-.184v-8.58c0-.072.026-.134.077-.185a.253.253 0 0 1 .185-.077h5.964c.072 0 .134.026.185.077a.25.25 0 0 1 .077.185v1.26a.25.25 0 0 1-.077.184.254.254 0 0 1-.185.077h-4.292zm18.173-1.681a.257.257 0 0 1 .078.188v8.676c0 .09-.01.158-.03.208a.354.354 0 0 1-.071.114.213.213 0 0 1-.094.055h-.353a.357.357 0 0 1-.153-.04.63.63 0 0 1-.145-.094.757.757 0 0 1-.157-.133l-5.45-5.251v5.235a.257.257 0 0 1-.078.189.256.256 0 0 1-.187.078h-1.426a.256.256 0 0 1-.188-.078.256.256 0 0 1-.078-.189v-8.676c0-.088.013-.156.04-.203a.383.383 0 0 1 .085-.11.474.474 0 0 1 .126-.063h.101c.032 0 .07-.001.114-.004a3 3 0 0 1 .137-.004.31.31 0 0 1 .149.044c.052.028.102.061.149.098.052.041.104.086.156.133l5.396 5.212v-5.197c0-.073.026-.135.078-.188a.258.258 0 0 1 .19-.078h1.422a.26.26 0 0 1 .189.078m12.086 7.956c0 .13-.012.234-.036.312-.023.077-.106.153-.247.225-.454.25-.966.434-1.535.553-.57.13-1.176.195-1.818.195-.857 0-1.61-.195-2.257-.584-.643-.39-1.141-.945-1.497-1.666-.355-.71-.532-1.56-.532-2.545 0-.488.043-.945.129-1.37a4.56 4.56 0 0 1 .403-1.175 3.91 3.91 0 0 1 1.497-1.666c.653-.384 1.405-.576 2.257-.576.277 0 .548.015.815.046.266.032.532.076.799.133a12.086 12.086 0 0 1 1.058.3c.162.054.304.106.427.155.122.05.213.09.27.12a.292.292 0 0 1 .11.137.24.24 0 0 1 0 .167L148.638 37a.265.265 0 0 1-.134.156.252.252 0 0 1-.203.007c-.293-.103-.59-.2-.894-.288-.26-.072-.547-.14-.858-.202a4.532 4.532 0 0 0-.889-.093c-.737 0-1.309.251-1.716.755-.402.503-.603 1.232-.603 2.187 0 .955.203 1.684.61 2.187.403.509.972.763 1.709.763a5.33 5.33 0 0 0 1.599-.241v-1.518h-1.905a.27.27 0 0 1-.192-.078.248.248 0 0 1-.082-.187v-1.222a.25.25 0 0 1 .082-.187.27.27 0 0 1 .192-.078h3.605c.073 0 .136.026.188.078a.254.254 0 0 1 .078.187l-.007 3.806z" fill="#333"/><g transform="translate(154.512 34.973)"><mask id="d" fill="#fff"><use xlink:href="#c"/></mask><path d="M1.954 1.855V3.63h3.012a.25.25 0 0 1 .184.078.258.258 0 0 1 .077.188v1.282a.258.258 0 0 1-.077.187.25.25 0 0 1-.184.078H1.954V7.49h4.265a.25.25 0 0 1 .184.078.258.258 0 0 1 .077.188v1.281a.258.258 0 0 1-.077.188.25.25 0 0 1-.184.078H.293a.248.248 0 0 1-.184-.078.258.258 0 0 1-.077-.188V.307A.26.26 0 0 1 .11.12.248.248 0 0 1 .293.042h5.926a.25.25 0 0 1 .184.078.258.258 0 0 1 .077.188v1.281a.258.258 0 0 1-.077.188.25.25 0 0 1-.184.078H1.954z" fill="#333" mask="url(#d)"/></g><path d="M61.207 61.274a.245.245 0 0 1 .07.173v1.306a.245.245 0 0 1-.07.174.231.231 0 0 1-.176.073h-5.718a.231.231 0 0 1-.177-.073.245.245 0 0 1-.069-.174v-1.306c0-.066.023-.124.07-.173a.231.231 0 0 1 .176-.074h1.939v-4.889l-1.74 1.012a.222.222 0 0 1-.188.023.268.268 0 0 1-.15-.116l-.597-1.035a.257.257 0 0 1-.02-.189.254.254 0 0 1 .112-.15l2.975-1.73 1.093-.626a.551.551 0 0 1 .223-.081c.057-.003.1.011.131.042.031.03.051.072.062.124.01.051.015.105.015.162V61.2h1.863c.071 0 .13.025.176.074m13.455-.003a.24.24 0 0 1 .07.178v1.303a.24.24 0 0 1-.07.178.248.248 0 0 1-.182.07h-7.243a.19.19 0 0 1-.174-.116.246.246 0 0 1-.02-.117.241.241 0 0 1 .06-.131l4.245-4.164.418-.426a10.8 10.8 0 0 0 .3-.318c.163-.191.29-.372.379-.543a1.27 1.27 0 0 0 .134-.55c0-.362-.108-.644-.324-.845-.226-.196-.539-.295-.939-.295-.294 0-.61.036-.946.109a.182.182 0 0 1-.048.03 3.99 3.99 0 0 0-.363.125c-.147.057-.29.114-.426.17a8.354 8.354 0 0 0-.497.225.27.27 0 0 1-.205.012.224.224 0 0 1-.142-.128l-.552-1.124c-.069-.14-.03-.253.118-.341a16.606 16.606 0 0 1 1.373-.597l.288-.101a3.888 3.888 0 0 1 .832-.186c.18-.02.392-.031.64-.031.678 0 1.26.119 1.743.356.479.243.84.58 1.081 1.008.242.43.363.941.363 1.535a2.92 2.92 0 0 1-.402 1.481c-.269.465-.663.946-1.184 1.442l-1.783 1.721h3.274c.074 0 .134.024.182.07" fill="#333"/></g></svg>