<svg width="0" height="0" style="position:absolute"><symbol viewBox="0 0 20 18" id="all_icon"><path d="M2 4a2 2 0 1 1 0-4 2 2 0 0 1 0 4zm8 0a2 2 0 1 1 0-4 2 2 0 0 1 0 4zm8 0a2 2 0 1 1 0-4 2 2 0 0 1 0 4zM2 11a2 2 0 1 1 0-4 2 2 0 0 1 0 4zm8 0a2 2 0 1 1 0-4 2 2 0 0 1 0 4zm8 0a2 2 0 1 1 0-4 2 2 0 0 1 0 4zM2 18a2 2 0 1 1 0-4 2 2 0 0 1 0 4zm8 0a2 2 0 1 1 0-4 2 2 0 0 1 0 4zm8 0a2 2 0 1 1 0-4 2 2 0 0 1 0 4z" fill-rule="evenodd"/></symbol><symbol viewBox="0 0 24 24" id="chevron_icon"><path d="M10 6L8.59 7.41 13.17 12l-4.58 4.59L10 18l6-6z"/><path d="M0 0h24v24H0z" fill="none"/></symbol><symbol viewBox="0 0 24 24" id="hamburger_icon"><g fill-rule="evenodd"><rect class="hamburger__rect" fill-rule="nonzero" y="3" width="24" height="2" rx="1"/><rect class="hamburger__rect" fill-rule="nonzero" y="11" width="24" height="2" rx="1"/><rect class="hamburger__rect" fill-rule="nonzero" y="19" width="24" height="2" rx="1"/></g></symbol><symbol viewBox="0 0 24 24" id="message_icon"><path d="M20 2H4c-1.1 0-2 .9-2 2v18l4-4h14c1.1 0 2-.9 2-2V4c0-1.1-.9-2-2-2z"/></symbol><symbol viewBox="0 0 22 24" id="notification_icon"><path d="M11.071 24c1.214 0 2.207-.9 2.207-2H8.865c0 1.1.982 2 2.206 2zM20 17l-.125-8.848c0-3.827-3.425-5.304-7-6.152v-.13A1.87 1.87 0 0 0 11 0C9.963 0 9 .835 9 1.87L8.875 2c-3.588.848-7 2.312-7 6.152L2 17l-2 2.325V21h22v-1.675L20 17z" fill-rule="evenodd"/></symbol><symbol viewBox="0 0 12 20" id="question_icon"><path fill-rule="evenodd" d="M5.223-.01c1.934 0 3.417.472 4.444 1.414 1.028.942 1.542 2.25 1.542 3.925 0 1.392-.379 2.489-1.135 3.286-.758.797-1.485 1.411-3.05 1.842l-.09 2.834a.64.64 0 0 1-.36.548c-.22.117-1.04.174-1.591.174-.551 0-.456-.057-.678-.174a.64.64 0 0 1-.36-.548l.012-4.683c-.02-.44.136-.698.467-.767 0 0 2.298-.194 3.095-.6.818-.413.981-1.376.981-2.069 0-.751-.234-1.321-.702-1.708-.468-.388-1.152-.582-2.054-.582-1.144 0-2.37.267-3.675.8a.877.877 0 0 1-.348.069c-.23 0-.446-.111-.65-.33-.203-.22-.429-.05-.6-.483C.291 2.487.2 2.122.2 1.84c0-.41.19-.702.571-.872A11.53 11.53 0 0 1 2.946.254 10.306 10.306 0 0 1 5.223-.01zM4.038 16.92h3.08V20h-3.08v-3.08z"/></symbol><symbol viewBox="0 0 8 6" id="time_triangle" xmlns="http://www.w3.org/2000/svg"><path d="M0 0l4 6 4-6z"/></symbol><symbol viewBox="0 0 24 24" id="user_icon"><path d="M12 2C6.48 2 2 6.48 2 12s4.48 10 10 10 10-4.48 10-10S17.52 2 12 2zm0 3c1.66 0 3 1.34 3 3s-1.34 3-3 3-3-1.34-3-3 1.34-3 3-3zm0 14.2a7.2 7.2 0 0 1-6-3.22c.03-1.99 4-3.08 6-3.08 1.99 0 5.97 1.09 6 3.08a7.2 7.2 0 0 1-6 3.22z"/></symbol></svg>