<svg viewBox="0 0 20 18">
    <path
          d="M2,4 C0.8954305,4 0,3.1045695 0,2 C0,0.8954305 0.8954305,0 2,0 C3.1045695,0 4,0.8954305 4,2 C4,3.1045695 3.1045695,4 2,4 Z M10,4 C8.8954305,4 8,3.1045695 8,2 C8,0.8954305 8.8954305,0 10,0 C11.1045695,0 12,0.8954305 12,2 C12,3.1045695 11.1045695,4 10,4 Z M18,4 C16.8954305,4 16,3.1045695 16,2 C16,0.8954305 16.8954305,0 18,0 C19.1045695,0 20,0.8954305 20,2 C20,3.1045695 19.1045695,4 18,4 Z M2,11 C0.8954305,11 0,10.1045695 0,9 C0,7.8954305 0.8954305,7 2,7 C3.1045695,7 4,7.8954305 4,9 C4,10.1045695 3.1045695,11 2,11 Z M10,11 C8.8954305,11 8,10.1045695 8,9 C8,7.8954305 8.8954305,7 10,7 C11.1045695,7 12,7.8954305 12,9 C12,10.1045695 11.1045695,11 10,11 Z M18,11 C16.8954305,11 16,10.1045695 16,9 C16,7.8954305 16.8954305,7 18,7 C19.1045695,7 20,7.8954305 20,9 C20,10.1045695 19.1045695,11 18,11 Z M2,18 C0.8954305,18 0,17.1045695 0,16 C0,14.8954305 0.8954305,14 2,14 C3.1045695,14 4,14.8954305 4,16 C4,17.1045695 3.1045695,18 2,18 Z M10,18 C8.8954305,18 8,17.1045695 8,16 C8,14.8954305 8.8954305,14 10,14 C11.1045695,14 12,14.8954305 12,16 C12,17.1045695 11.1045695,18 10,18 Z M18,18 C16.8954305,18 16,17.1045695 16,16 C16,14.8954305 16.8954305,14 18,14 C19.1045695,14 20,14.8954305 20,16 C20,17.1045695 19.1045695,18 18,18 Z"
          fill-rule="evenodd"></path>
</svg>