<svg viewBox="0 0 22 24">
    <path d="M11.0714286,24 C12.2849206,24 13.2777778,23.1 13.2777778,22 L8.86507937,22 C8.86507937,23.1 9.8469048,24 11.0714286,24 Z M20,17 L19.875,8.15220779 C19.875,4.32467532 16.45,2.84779221 12.875,2 L12.875,1.87012987 C12.875,0.835324675 12.0375,0 11,0 C9.9625,0 9,0.835324675 9,1.87012987 L8.875,2 C5.2875,2.84779221 1.875,4.31220779 1.875,8.15220779 L2,17 L0,19.3246753 L0,21 L22,21 L22,19.3246753 L20,17 Z"
          id="notification" fill-rule="evenodd"></path>
</svg>