<svg viewBox="0 0 12 20">
    <path fill-rule="evenodd"
          d="M5.2231996,-0.00964308 C7.1573316,-0.00964308 8.6402689,0.46157062 9.6673915,1.40399801 C10.6945142,2.34642541 11.2088455,3.65381243 11.2088455,5.32923891 C11.2088455,6.7213212 10.8300266,7.81774 10.0739288,8.6154155 C9.3162911,9.411551 8.5894517,10.0259767 7.024899,10.4571527 L6.9340441,13.2905945 C6.9140252,13.5400606 6.7939119,13.7233104 6.5737042,13.8388039 C6.3534965,13.9558374 5.5342622,14.0128142 4.982973,14.0128142 C4.4316838,14.0128142 4.5271585,13.9558374 4.3054108,13.8388039 C4.0852031,13.7233104 3.9650898,13.5400606 3.945071,13.2905945 L3.9573903,8.6077159 C3.9373714,8.1673005 4.0929027,7.91013485 4.4239842,7.84083871 C4.4239842,7.84083871 6.721536,7.64680954 7.5192114,7.24181215 C8.3369058,6.82757527 8.5001367,5.865129 8.5001367,5.17216768 C8.5001367,4.42068962 8.2660698,3.85092143 7.7979359,3.464403 C7.329802,3.07634466 6.6460802,2.88231549 5.7436906,2.88231549 C4.5995344,2.88231549 3.3737628,3.14872062 2.06945565,3.68153088 C1.96474149,3.72618839 1.84924794,3.75082701 1.72143507,3.75082701 C1.49044797,3.75082701 1.27486,3.6399532 1.07159135,3.42128541 C0.86832269,3.2010777 0.64195533,3.37046825 0.47102487,2.9377524 C0.29085493,2.48655758 0.2,2.12159796 0.2,1.83979369 C0.2,1.43017655 0.39094934,1.13759288 0.77130811,0.96820234 C1.44271063,0.6679191 2.16801015,0.42923242 2.94566674,0.25368222 C3.7217834,0.07813202 4.480961,-0.00964308 5.2231996,-0.00964308 Z M4.0380818,16.9201719 L7.1179098,16.9201719 L7.1179098,20 L4.0380818,20 L4.0380818,16.9201719 Z"
          id="question"></path>
</svg>